<!--?xml version="1.0" standalone="no"?-->
              <svg id="sw-js-blob-svg" viewBox="0 0 100 100" xmlns="http://www.w3.org/2000/svg" version="1.1">
                    <defs> 
                        <linearGradient id="sw-gradient" x1="0" x2="1" y1="1" y2="0">
                            <stop id="stop1" stop-color="rgba(71.79, 71.79, 71.79, 1)" offset="0%"></stop>
                            <stop id="stop2" stop-color="rgba(49.022, 48.882, 47.344, 1)" offset="100%"></stop>
                        </linearGradient>
                    </defs>
                <path fill="url(#sw-gradient)" d="M20.2,-20.4C28,-17.5,37.6,-12.9,38.3,-7C39,-1.2,30.8,6,25.4,14.1C20,22.2,17.4,31.3,10.9,36.3C4.5,41.4,-5.7,42.5,-11.6,37.8C-17.6,33.1,-19.3,22.6,-23.7,14.1C-28,5.7,-34.8,-0.8,-33.6,-5.6C-32.4,-10.3,-23,-13.3,-16.1,-16.4C-9.1,-19.4,-4.6,-22.5,0.8,-23.5C6.2,-24.5,12.3,-23.3,20.2,-20.4Z" width="100%" height="100%" transform="translate(50 50)" stroke-width="0" style="transition: all 0.3s ease 0s;"></path>
              </svg>