<!--?xml version="1.0" standalone="no"?-->
              <svg id="sw-js-blob-svg" viewBox="0 0 100 100" xmlns="http://www.w3.org/2000/svg" version="1.1">
                    <defs> 
                        <linearGradient id="sw-gradient" x1="0" x2="1" y1="1" y2="0">
                            <stop id="stop1" stop-color="rgba(226.611, 208.28, 6.477, 1)" offset="0%"></stop>
                            <stop id="stop2" stop-color="rgba(228.888, 210.372, 6.542, 1)" offset="100%"></stop>
                        </linearGradient>
                    </defs>
                <path fill="url(#sw-gradient)" d="M21.8,-37.5C25.9,-31.3,25.2,-21.2,28.8,-13.2C32.5,-5.1,40.5,0.9,42.7,8.2C44.9,15.5,41.2,24,35.5,30.8C29.7,37.5,21.8,42.3,13.4,44C5.1,45.7,-3.8,44.3,-10.1,39.9C-16.4,35.5,-20.3,28.2,-25.8,22.2C-31.4,16.1,-38.7,11.4,-40.9,5.1C-43,-1.2,-40,-9,-35.7,-15.5C-31.5,-21.9,-26,-27,-19.9,-32.2C-13.7,-37.5,-6.9,-43,1,-44.5C8.9,-46.1,17.7,-43.7,21.8,-37.5Z" width="100%" height="100%" transform="translate(50 50)" stroke-width="0" style="transition: all 0.3s ease 0s;" stroke="url(#sw-gradient)"></path>
              </svg>